<?xml version="1.0" encoding="UTF-8" standalone="no"?>
<svg
   xmlns:dc="http://purl.org/dc/elements/1.1/"
   xmlns:cc="http://creativecommons.org/ns#"
   xmlns:rdf="http://www.w3.org/1999/02/22-rdf-syntax-ns#"
   xmlns:svg="http://www.w3.org/2000/svg"
   xmlns="http://www.w3.org/2000/svg"
   xmlns:sodipodi="http://sodipodi.sourceforge.net/DTD/sodipodi-0.dtd"
   xmlns:inkscape="http://www.inkscape.org/namespaces/inkscape"
   width="960"
   height="459"
   overflow="hidden"
   version="1.1"
   id="svg257"
   sodipodi:docname="overview.svg"
   inkscape:version="0.92.5 (2060ec1f9f, 2020-04-08)"
   inkscape:export-filename="/home/hasegawa/ros2_trace_dev/imgs/overview.png"
   inkscape:export-xdpi="144"
   inkscape:export-ydpi="144">
  <metadata
     id="metadata261">
    <rdf:RDF>
      <cc:Work
         rdf:about="">
        <dc:format>image/svg+xml</dc:format>
        <dc:type
           rdf:resource="http://purl.org/dc/dcmitype/StillImage" />
      </cc:Work>
    </rdf:RDF>
  </metadata>
  <sodipodi:namedview
     pagecolor="#ffffff"
     bordercolor="#666666"
     borderopacity="1"
     objecttolerance="10"
     gridtolerance="10"
     guidetolerance="10"
     inkscape:pageopacity="0"
     inkscape:pageshadow="2"
     inkscape:window-width="1920"
     inkscape:window-height="1080"
     id="namedview259"
     showgrid="false"
     inkscape:zoom="1.0577139"
     inkscape:cx="393.88447"
     inkscape:cy="169.90303"
     inkscape:window-x="1920"
     inkscape:window-y="0"
     inkscape:window-maximized="0"
     inkscape:current-layer="g255" />
  <defs
     id="defs23">
    <clipPath
       id="clip0">
      <rect
         x="11"
         y="219"
         width="960"
         height="459"
         id="rect2" />
    </clipPath>
    <clipPath
       id="clip1">
      <rect
         x="835"
         y="453"
         width="28"
         height="28"
         id="rect5" />
    </clipPath>
    <clipPath
       id="clip2">
      <rect
         x="835"
         y="453"
         width="28"
         height="28"
         id="rect8" />
    </clipPath>
    <clipPath
       id="clip3">
      <rect
         x="835"
         y="453"
         width="28"
         height="28"
         id="rect11" />
    </clipPath>
    <clipPath
       id="clip4">
      <rect
         x="905"
         y="603"
         width="28"
         height="28"
         id="rect14" />
    </clipPath>
    <clipPath
       id="clip5">
      <rect
         x="905"
         y="603"
         width="28"
         height="28"
         id="rect17" />
    </clipPath>
    <clipPath
       id="clip6">
      <rect
         x="905"
         y="603"
         width="28"
         height="28"
         id="rect20" />
    </clipPath>
  </defs>
  <g
     clip-path="url(#clip0)"
     transform="translate(-11 -219)"
     id="g255">
    <path
       d="M11.5001 244.834C11.5001 231.395 22.3947 220.5 35.8339 220.5L390.166 220.5C403.605 220.5 414.5 231.395 414.5 244.834L414.5 342.166C414.5 355.605 403.605 366.5 390.166 366.5L35.8339 366.5C22.3947 366.5 11.5001 355.605 11.5001 342.166Z"
       stroke="#2A6D7D"
       stroke-width="0.333333"
       stroke-linejoin="round"
       stroke-miterlimit="10"
       fill="#7EC3D4"
       fill-rule="evenodd"
       fill-opacity="0.211765"
       id="path25" />
    <path
       d="M11.5001 412.501C11.5001 394.275 26.2749 379.5 44.5005 379.5L526.5 379.5C544.725 379.5 559.5 394.275 559.5 412.501L559.5 544.5C559.5 562.725 544.725 577.5 526.5 577.5L44.5005 577.5C26.2749 577.5 11.5001 562.725 11.5001 544.5Z"
       stroke="#2A6D7D"
       stroke-width="0.333333"
       stroke-linejoin="round"
       stroke-miterlimit="10"
       fill="#7EC3D4"
       fill-rule="evenodd"
       fill-opacity="0.211765"
       id="path27" />
    <path
       d="M603.5 554.334C603.5 540.618 614.618 529.5 628.334 529.5L940.666 529.5C954.382 529.5 965.5 540.618 965.5 554.334L965.5 653.666C965.5 667.382 954.382 678.5 940.666 678.5L628.334 678.5C614.618 678.5 603.5 667.382 603.5 653.666Z"
       stroke="#2A6D7D"
       stroke-width="0.333333"
       stroke-linejoin="round"
       stroke-miterlimit="10"
       fill="#7EC3D4"
       fill-rule="evenodd"
       fill-opacity="0.211765"
       id="path29" />
    <path
       d="M608.5 306.334C608.5 284.887 625.887 267.5 647.334 267.5L931.666 267.5C953.113 267.5 970.5 284.887 970.5 306.334L970.5 461.666C970.5 483.113 953.113 500.5 931.666 500.5L647.334 500.5C625.887 500.5 608.5 483.113 608.5 461.666Z"
       stroke="#2A6D7D"
       stroke-width="0.333333"
       stroke-linejoin="round"
       stroke-miterlimit="10"
       fill="#7EC3D4"
       fill-rule="evenodd"
       fill-opacity="0.211765"
       id="path31" />
    <path
       d="M24.5001 448.834C24.5001 442.574 29.5742 437.5 35.8335 437.5L190.167 437.5C196.426 437.5 201.5 442.574 201.5 448.834L201.5 494.167C201.5 500.426 196.426 505.5 190.167 505.5L35.8335 505.5C29.5742 505.5 24.5001 500.426 24.5001 494.167Z"
       stroke="#2A6D7D"
       stroke-linejoin="round"
       stroke-miterlimit="10"
       fill="#9AD0DD"
       fill-rule="evenodd"
       id="path33" />
    <text
       font-family="Meiryo,Meiryo_MSFontService,sans-serif"
       font-weight="400"
       font-size="14"
       transform="translate(46.1424 466)"
       id="text41">Fork <tspan
   font-size="14"
   x="35"
   y="0"
   id="tspan35">版</tspan>
<tspan
   font-size="14"
   x="53"
   y="0"
   id="tspan37">ROS 2 Foxy</tspan>
<tspan
   font-size="14"
   x="24"
   y="17"
   id="tspan39">（要ビルド）</tspan>
</text>
    <path
       d="M0.0124093-1.99996 54.2253-1.66358 54.2005 2.33634-0.0124093 1.99996ZM52.2502-5.67591 64.2127 0.398425 52.1757 6.32385Z"
       fill="#3891A7"
       transform="matrix(1 0 0 -1 201 470.398)"
       id="path43" />
    <text
       font-family="Meiryo,Meiryo_MSFontService,sans-serif"
       font-weight="700"
       font-size="16"
       transform="translate(23.5509 242)"
       id="text45">開発</text>
    <path
       d="m 662.83705,584.334 c 0,-8.745 7.089,-15.834 15.834,-15.834 h 173.332 c 8.745,0 15.834,7.089 15.834,15.834 v 63.332 c 0,8.745 -7.089,15.834 -15.834,15.834 h -173.332 c -8.745,0 -15.834,-7.089 -15.834,-15.834 z"
       stroke-miterlimit="10"
       id="path47"
       inkscape:connector-curvature="0"
       style="fill:#9ad0dd;fill-rule:evenodd;stroke:#2a6d7d;stroke-linejoin:round;stroke-miterlimit:10" />
    <text
       font-weight="400"
       font-size="14"
       id="text61"
       transform="translate(690.405,611)"
       style="font-weight:400;font-size:14px;font-family:Wingdings, Wingdings_MSFontService, sans-serif">
      <tspan
         font-weight="700"
         font-size="19"
         x="-71.319199"
         y="-55"
         id="tspan59"
         style="font-weight:700;font-size:19px;font-family:Meiryo, Meiryo_MSFontService, sans-serif">解析</tspan>
    </text>
    <path
       d="M33.5001 286.834C33.5001 280.574 38.5743 275.5 44.8336 275.5L196.166 275.5C202.426 275.5 207.5 280.574 207.5 286.834L207.5 332.166C207.5 338.426 202.426 343.5 196.166 343.5L44.8336 343.5C38.5743 343.5 33.5001 338.426 33.5001 332.166Z"
       stroke="#2A6D7D"
       stroke-linejoin="round"
       stroke-miterlimit="10"
       fill="#9AD0DD"
       fill-rule="evenodd"
       id="path63" />
    <text
       font-family="Meiryo,Meiryo_MSFontService,sans-serif"
       font-weight="400"
       font-size="14"
       transform="translate(82.4101 312)"
       id="text65">ROS 2 foxy</text>
    <path
       d="M266.5 286.834C266.5 280.574 271.574 275.5 277.834 275.5L348.167 275.5C354.426 275.5 359.5 280.574 359.5 286.834L359.5 332.167C359.5 338.426 354.426 343.5 348.167 343.5L277.834 343.5C271.574 343.5 266.5 338.426 266.5 332.167Z"
       stroke="#2A6D7D"
       stroke-linejoin="round"
       stroke-miterlimit="10"
       fill="#9AD0DD"
       fill-rule="evenodd"
       id="path67" />
    <text
       font-family="Meiryo,Meiryo_MSFontService,sans-serif"
       font-weight="400"
       font-size="14"
       transform="translate(299.3 312)"
       id="text69">App</text>
    <path
       d="M207 307 255.963 307 255.963 311 207 311ZM253.963 303 265.963 309 253.963 315Z"
       fill="#3891A7"
       id="path71" />
    <path
       d="M265 447.334C265 441.074 270.074 436 276.333 436L346.667 436C352.926 436 358 441.074 358 447.334L358 492.666C358 498.926 352.926 504 346.667 504L276.333 504C270.074 504 265 498.926 265 492.666Z"
       stroke="#9BC8D3"
       stroke-width="4"
       stroke-linejoin="round"
       stroke-miterlimit="10"
       stroke-dasharray="12 4"
       fill="#D4EBF1"
       fill-rule="evenodd"
       id="path73" />
    <text
       font-family="Meiryo,Meiryo_MSFontService,sans-serif"
       font-weight="400"
       font-size="14"
       transform="translate(298.105 474)"
       id="text77">App<tspan
   font-weight="700"
   font-size="16"
   x="-273.202"
   y="-74"
   id="tspan75">測定</tspan>
</text>
    <path
       d="M0.0292323-1.99979 54.0449-1.2102 53.9864 2.78937-0.0292323 1.99979ZM52.1036-5.23901 64.0146 0.935748 51.9282 6.75971Z"
       fill="#3891A7"
       transform="matrix(1 0 0 -1 358 469.936)"
       id="path79" />
    <path
       d="M717.5 364.834C717.5 358.574 722.574 353.5 728.834 353.5L855.167 353.5C861.426 353.5 866.5 358.574 866.5 364.834L866.5 410.167C866.5 416.426 861.426 421.5 855.167 421.5L728.834 421.5C722.574 421.5 717.5 416.426 717.5 410.167Z"
       stroke="#2A6D7D"
       stroke-linejoin="round"
       stroke-miterlimit="10"
       fill="#9AD0DD"
       fill-rule="evenodd"
       id="path81" />
    <text
       font-weight="400"
       font-size="14"
       id="text87"
       font-family="Meiryo,Meiryo_MSFontService,sans-serif"
       transform="translate(775.537 382)">CUI<tspan
   font-size="14"
   x="-34"
   y="17"
   id="tspan83">解析モジュール</tspan>
<tspan
   font-size="19"
   x="-136.36"
   y="-83"
   id="tspan85">テスト</tspan>
</text>
    <path
       d="M1.99984-0.0255445 3.06708 83.5267-0.932598 83.5778-1.99984 0.0255445ZM7.0412 81.4757 1.19496 93.5514-4.95782 81.629Z"
       fill="#3891A7"
       transform="matrix(-1 0 0 1 313.195 343)"
       id="path89" />
    <path
       d="M542 465.833 571.493 465.833C572.689 465.833 573.659 466.803 573.659 468L573.659 615.582 571.493 613.415 649.925 613.415 649.925 617.749 571.493 617.749C570.296 617.749 569.326 616.779 569.326 615.582L569.326 468 571.493 470.167 542 470.167ZM647.759 609.082 660.759 615.582 647.759 622.082Z"
       fill="#348FA6"
       id="path91" />
    <path
       d="M0-2.16667 33.238-2.16667C34.4347-2.16667 35.4047-1.19662 35.4047 0L35.4047 228.826 33.238 226.659 166.616 226.659 166.616 230.992 33.238 230.992C32.0414 230.992 31.0714 230.022 31.0714 228.826L31.0714 0 33.238 2.16667 0 2.16667ZM164.449 222.326 177.449 228.826 164.449 235.326Z"
       fill="#348FA6"
       transform="matrix(1 0 0 -1 539 615.826)"
       id="path93" />
    <path
       d="M793 334.99 793.038 342.754 789.038 342.774 789 335.01ZM797.028 340.734 791.088 352.764 785.029 340.793Z"
       fill="#3891A7"
       id="path95" />
    <path
       d="M1.32085-1.50179 21.5234 16.2667 18.8817 19.2703-1.32085 1.50179ZM22.6633 11.9423 27.7115 24.3727 14.7382 20.953Z"
       fill="#3891A7"
       transform="matrix(-1 0 0 1 790.711 421)"
       id="path97" />
    <path
       d="M0.0155355-1.99994 12.1674-1.90554 12.1364 2.09434-0.0155355 1.99994ZM10.1986-5.92096 22.1516 0.172073 10.1054 6.07868Z"
       fill="#3891A7"
       transform="matrix(1 0 0 -1 866 615.172)"
       id="path99" />
    <path
       d="M747.5 293.5 835.5 293.5 835.5 328.5 828.5 335.5 747.5 335.5Z"
       fill="#FFFFFF"
       fill-rule="evenodd"
       id="path101" />
    <path
       d="M828.5 335.5 829.9 329.9 835.5 328.5Z"
       fill="#CDCDCD"
       fill-rule="evenodd"
       id="path103" />
    <path
       d="M828.5 335.5 829.9 329.9 835.5 328.5 828.5 335.5 747.5 335.5 747.5 293.5 835.5 293.5 835.5 328.5"
       stroke="#000000"
       stroke-linejoin="round"
       stroke-miterlimit="10"
       fill="none"
       fill-rule="evenodd"
       id="path105" />
    <text
       font-family="Meiryo,Meiryo_MSFontService,sans-serif"
       font-weight="400"
       font-size="12"
       transform="translate(756.864 305)"
       id="text109">テスト要件<tspan
   font-size="12"
   x="0"
   y="12"
   id="tspan107">ファイル</tspan>
</text>
    <path
       d="M419.5 585.5 539.5 585.5 539.5 629.127 522.127 646.5 419.5 646.5Z"
       fill="#FFFFFF"
       fill-rule="evenodd"
       id="path111" />
    <path
       d="M522.127 646.5 525.602 632.602 539.5 629.127Z"
       fill="#CDCDCD"
       fill-rule="evenodd"
       id="path113" />
    <path
       d="M522.127 646.5 525.602 632.602 539.5 629.127 522.127 646.5 419.5 646.5 419.5 585.5 539.5 585.5 539.5 629.127"
       stroke="#000000"
       stroke-linejoin="round"
       stroke-miterlimit="10"
       fill="none"
       fill-rule="evenodd"
       id="path115" />
    <text
       font-family="Meiryo,Meiryo_MSFontService,sans-serif"
       font-weight="400"
       font-size="11"
       transform="translate(429.037 597)"
       id="text121">アーキテクチャ<tspan
   font-size="11"
   x="0"
   y="10"
   id="tspan117">ファイル</tspan>
<tspan
   font-size="11"
   x="0"
   y="21"
   id="tspan119">（次スライド参照）</tspan>
</text>
    <path
       d="M720.5 445.5 807.5 445.5 807.5 480.5 800.5 487.5 720.5 487.5Z"
       fill="#FFFFFF"
       fill-rule="evenodd"
       id="path123" />
    <path
       d="M800.5 487.5 801.9 481.9 807.5 480.5Z"
       fill="#CDCDCD"
       fill-rule="evenodd"
       id="path125" />
    <path
       d="M800.5 487.5 801.9 481.9 807.5 480.5 800.5 487.5 720.5 487.5 720.5 445.5 807.5 445.5 807.5 480.5"
       stroke="#000000"
       stroke-linejoin="round"
       stroke-miterlimit="10"
       fill="none"
       fill-rule="evenodd"
       id="path127" />
    <text
       font-family="Meiryo,Meiryo_MSFontService,sans-serif"
       font-weight="400"
       font-size="12"
       transform="translate(729.24 458)"
       id="text131">サマリ<tspan
   font-size="12"
   x="0"
   y="12"
   id="tspan129">ファイル</tspan>
</text>
    <path
       d="M829.5 453.5 883.5 453.5 883.5 488.5 876.5 495.5 829.5 495.5Z"
       fill="#FFFFFF"
       fill-rule="evenodd"
       id="path133" />
    <path
       d="M876.5 495.5 877.9 489.9 883.5 488.5Z"
       fill="#CDCDCD"
       fill-rule="evenodd"
       id="path135" />
    <path
       d="M876.5 495.5 877.9 489.9 883.5 488.5 876.5 495.5 829.5 495.5 829.5 453.5 883.5 453.5 883.5 488.5"
       stroke="#000000"
       stroke-linejoin="round"
       stroke-miterlimit="10"
       fill="none"
       fill-rule="evenodd"
       id="path137" />
    <path
       d="M824.5 448.5 877.5 448.5 877.5 484.333 870.333 491.5 824.5 491.5Z"
       fill="#FFFFFF"
       fill-rule="evenodd"
       id="path139" />
    <path
       d="M870.333 491.5 871.767 485.767 877.5 484.333Z"
       fill="#CDCDCD"
       fill-rule="evenodd"
       id="path141" />
    <path
       d="M870.333 491.5 871.767 485.767 877.5 484.333 870.333 491.5 824.5 491.5 824.5 448.5 877.5 448.5 877.5 484.333"
       stroke="#000000"
       stroke-linejoin="round"
       stroke-miterlimit="10"
       fill="none"
       fill-rule="evenodd"
       id="path143" />
    <path
       d="M818.5 444.5 871.5 444.5 871.5 480.333 864.333 487.5 818.5 487.5Z"
       fill="#FFFFFF"
       fill-rule="evenodd"
       id="path145" />
    <path
       d="M864.333 487.5 865.767 481.767 871.5 480.333Z"
       fill="#CDCDCD"
       fill-rule="evenodd"
       id="path147" />
    <path
       d="M864.333 487.5 865.767 481.767 871.5 480.333 864.333 487.5 818.5 487.5 818.5 444.5 871.5 444.5 871.5 480.333"
       stroke="#000000"
       stroke-linejoin="round"
       stroke-miterlimit="10"
       fill="none"
       fill-rule="evenodd"
       id="path149" />
    <text
       font-family="Meiryo,Meiryo_MSFontService,sans-serif"
       font-weight="400"
       font-size="13"
       transform="translate(827.536 460)"
       id="text151">図</text>
    <g
       clip-path="url(#clip1)"
       id="g167">
      <g
         clip-path="url(#clip2)"
         id="g165">
        <g
           clip-path="url(#clip3)"
           id="g163">
          <path
             d="M858.334 457.083 858.917 457.083 858.917 476.917 839.093 476.917 839.093 476.333 858.334 476.333 858.334 457.083Z"
             id="path153" />
          <path
             d="M856.583 474.588 856.583 463.21 853.083 463.21 853.083 474.588ZM856 474.005 853.667 474.005 853.667 463.793 856 463.793Z"
             id="path155" />
          <path
             d="M851.917 474.588 851.917 457.083 848.417 457.083 848.417 474.588ZM851.333 474.005 849 474.005 849 457.667 851.333 457.667Z"
             id="path157" />
          <path
             d="M847.25 474.588 847.25 463.21 843.75 463.21 843.75 474.588ZM846.667 474.005 844.333 474.005 844.333 463.793 846.667 463.793Z"
             id="path159" />
          <path
             d="M842.583 468.17 839.083 468.17 839.083 474.588 842.583 474.588ZM842 474.005 839.667 474.005 839.667 468.753 842 468.753Z"
             id="path161" />
        </g>
      </g>
    </g>
    <path
       d="M791.803 419.168 836.21 438.639 834.604 442.302 790.197 422.832ZM835.984 434.173 844.565 444.486 831.166 445.163Z"
       fill="#3891A7"
       id="path169" />
    <path
       d="M899.5 603.5 953.5 603.5 953.5 638.5 946.5 645.5 899.5 645.5Z"
       fill="#FFFFFF"
       fill-rule="evenodd"
       id="path171" />
    <path
       d="M946.5 645.5 947.9 639.9 953.5 638.5Z"
       fill="#CDCDCD"
       fill-rule="evenodd"
       id="path173" />
    <path
       d="M946.5 645.5 947.9 639.9 953.5 638.5 946.5 645.5 899.5 645.5 899.5 603.5 953.5 603.5 953.5 638.5"
       stroke="#000000"
       stroke-linejoin="round"
       stroke-miterlimit="10"
       fill="none"
       fill-rule="evenodd"
       id="path175" />
    <path
       d="M894.5 598.5 947.5 598.5 947.5 634.333 940.333 641.5 894.5 641.5Z"
       fill="#FFFFFF"
       fill-rule="evenodd"
       id="path177" />
    <path
       d="M940.333 641.5 941.767 635.767 947.5 634.333Z"
       fill="#CDCDCD"
       fill-rule="evenodd"
       id="path179" />
    <path
       d="M940.333 641.5 941.767 635.767 947.5 634.333 940.333 641.5 894.5 641.5 894.5 598.5 947.5 598.5 947.5 634.333"
       stroke="#000000"
       stroke-linejoin="round"
       stroke-miterlimit="10"
       fill="none"
       fill-rule="evenodd"
       id="path181" />
    <path
       d="M888.5 594.5 941.5 594.5 941.5 630.333 934.333 637.5 888.5 637.5Z"
       fill="#FFFFFF"
       fill-rule="evenodd"
       id="path183" />
    <path
       d="M934.333 637.5 935.767 631.767 941.5 630.333Z"
       fill="#CDCDCD"
       fill-rule="evenodd"
       id="path185" />
    <path
       d="M934.333 637.5 935.767 631.767 941.5 630.333 934.333 637.5 888.5 637.5 888.5 594.5 941.5 594.5 941.5 630.333"
       stroke="#000000"
       stroke-linejoin="round"
       stroke-miterlimit="10"
       fill="none"
       fill-rule="evenodd"
       id="path187" />
    <text
       font-family="Meiryo,Meiryo_MSFontService,sans-serif"
       font-weight="400"
       font-size="13"
       transform="translate(897.428 610)"
       id="text189">図</text>
    <g
       clip-path="url(#clip4)"
       id="g205">
      <g
         clip-path="url(#clip5)"
         id="g203">
        <g
           clip-path="url(#clip6)"
           id="g201">
          <path
             d="M928.334 607.083 928.917 607.083 928.917 626.917 909.093 626.917 909.093 626.333 928.334 626.333 928.334 607.083Z"
             id="path191" />
          <path
             d="M926.583 624.588 926.583 613.21 923.083 613.21 923.083 624.588ZM926 624.005 923.667 624.005 923.667 613.793 926 613.793Z"
             id="path193" />
          <path
             d="M921.917 624.588 921.917 607.083 918.417 607.083 918.417 624.588ZM921.333 624.005 919 624.005 919 607.667 921.333 607.667Z"
             id="path195" />
          <path
             d="M917.25 624.588 917.25 613.21 913.75 613.21 913.75 624.588ZM916.667 624.005 914.333 624.005 914.333 613.793 916.667 613.793Z"
             id="path197" />
          <path
             d="M912.583 618.17 909.083 618.17 909.083 624.588 912.583 624.588ZM912 624.005 909.667 624.005 909.667 618.753 912 618.753Z"
             id="path199" />
        </g>
      </g>
    </g>
    <path
       d="M321 385.167C321 381.209 324.209 378 328.167 378L349.333 378 349.333 378 391.833 378 483.833 378C487.791 378 491 381.209 491 385.167L491 403.083 491 403.083 491 413.833 491 413.833C491 417.791 487.791 421 483.833 421L391.833 421 344.127 433.061 349.333 421 328.167 421C324.209 421 321 417.791 321 413.833L321 413.833 321 403.083 321 403.083Z"
       fill="#FEDB84"
       fill-rule="evenodd"
       id="path207" />
    <text
       font-family="Meiryo,Meiryo_MSFontService,sans-serif"
       font-weight="400"
       font-size="13"
       transform="translate(333.048 394)"
       id="text211">開発時のソースコードを<tspan
   font-size="13"
   x="0"
   y="13"
   id="tspan209">そのまま利用可</tspan>
</text>
    <path
       d="M163 246C163 243.239 165.239 241 168 241L203.167 241 203.167 241 263.417 241 399 241C401.761 241 404 243.239 404 246L404 258.5 404 258.5 404 266 404 266C404 268.761 401.761 271 399 271L263.417 271 203.167 271 203.167 271 168 271C165.239 271 163 268.761 163 266L163 266 151.49 271.635 163 258.5Z"
       fill="#FEDB84"
       fill-rule="evenodd"
       id="path213" />
    <text
       font-family="Meiryo,Meiryo_MSFontService,sans-serif"
       font-weight="400"
       font-size="14"
       transform="translate(174.322 259)"
       id="text227">開発時は<tspan
   font-size="14"
   x="61"
   y="0"
   id="tspan215">apt </tspan>
で入る<tspan
   font-size="14"
   x="134"
   y="0"
   id="tspan217">Foxy</tspan>
<tspan
   font-size="14"
   x="171"
   y="0"
   id="tspan219">を使用</tspan>
<tspan
   font-size="14"
   x="37.5764"
   y="39"
   id="tspan221">ビルド</tspan>
<tspan
   font-size="14"
   x="35.9509"
   y="201"
   id="tspan223">ビルド</tspan>
<tspan
   font-size="14"
   x="200.217"
   y="199"
   id="tspan225">測定</tspan>
</text>
    <path
       d="M419.5 445.167C419.5 438.723 447.035 433.5 481 433.5 514.966 433.5 542.5 438.723 542.5 445.167L542.5 491.833C542.5 498.277 514.966 503.5 481 503.5 447.035 503.5 419.5 498.277 419.5 491.833Z"
       fill="#9AD0DD"
       fill-rule="evenodd"
       id="path229" />
    <path
       d="M542.5 445.167C542.5 451.61 514.966 456.833 481 456.833 447.035 456.833 419.5 451.61 419.5 445.167"
       stroke="#2A6D7D"
       stroke-width="0.666667"
       stroke-linejoin="round"
       stroke-miterlimit="10"
       stroke-opacity="0.901961"
       fill="none"
       fill-rule="evenodd"
       id="path231" />
    <path
       d="M419.5 445.167C419.5 438.723 447.035 433.5 481 433.5 514.966 433.5 542.5 438.723 542.5 445.167L542.5 491.833C542.5 498.277 514.966 503.5 481 503.5 447.035 503.5 419.5 498.277 419.5 491.833Z"
       stroke="#2A6D7D"
       stroke-width="0.666667"
       stroke-linejoin="round"
       stroke-miterlimit="10"
       stroke-opacity="0.901961"
       fill="none"
       fill-rule="evenodd"
       id="path233" />
    <text
       font-family="Meiryo,Meiryo_MSFontService,sans-serif"
       font-weight="400"
       font-size="15"
       transform="translate(428.678 473)"
       id="text235">トレースデータ</text>
    <path
       d="M1.73402-0.996588 39.7927 65.2236 36.3246 67.2168-1.73402 0.996588ZM42.2641 61.4964 43.0416 74.8903 31.86 67.476Z"
       fill="#3891A7"
       transform="matrix(1 0 0 -1 376 542.89)"
       id="path237" />
    <path
       d="M140 582.167C140 578.209 143.209 575 147.167 575L253.167 575 294.377 559.785 301.667 575 326.833 575C330.791 575 334 578.209 334 582.167L334 582.167 334 582.167 334 592.917 334 610.833C334 614.791 330.791 618 326.833 618L301.667 618 253.167 618 253.167 618 147.167 618C143.209 618 140 614.791 140 610.833L140 592.917 140 582.167 140 582.167Z"
       fill="#FEDB84"
       fill-rule="evenodd"
       id="path239" />
    <text
       font-family="Meiryo,Meiryo_MSFontService,sans-serif"
       font-weight="400"
       font-size="13"
       transform="translate(151.836 591)"
       id="text245">可視化したグラフに<tspan
   font-size="13"
   x="0"
   y="13"
   id="tspan241">rostime</tspan>
<tspan
   font-size="13"
   x="53"
   y="13"
   id="tspan243">を使用する際に必要</tspan>
</text>
    <path
       d="M243.5 533.5C243.5 530.739 245.739 528.5 248.5 528.5L371.5 528.5C374.261 528.5 376.5 530.739 376.5 533.5L376.5 553.5C376.5 556.261 374.261 558.5 371.5 558.5L248.5 558.5C245.739 558.5 243.5 556.261 243.5 553.5Z"
       stroke="#2A6D7D"
       stroke-linejoin="round"
       stroke-miterlimit="10"
       fill="#9AD0DD"
       fill-rule="evenodd"
       id="path247" />
    <text
       font-family="Meiryo,Meiryo_MSFontService,sans-serif"
       font-weight="400"
       font-size="14"
       transform="translate(253.427 546)"
       id="text253">rostime<tspan
   font-size="14"
   x="56"
   y="0"
   id="tspan249">recorder</tspan>
<tspan
   font-size="14"
   x="146.821"
   y="-14"
   id="tspan251">測定</tspan>
</text>
    <text
       style="font-weight:400;font-size:14px;font-family:Wingdings, Wingdings_MSFontService, sans-serif"
       y="627.04462"
       x="717.81445"
       font-weight="400"
       font-size="14"
       id="text1094" />
    <text
       xml:space="preserve"
       style="font-style:normal;font-weight:normal;font-size:12px;line-height:1.25;font-family:sans-serif;letter-spacing:0px;word-spacing:0px;fill:#000000;fill-opacity:1;stroke:none"
       x="702.25354"
       y="615.15881"
       id="text1106"><tspan
         sodipodi:role="line"
         id="tspan1104"
         x="702.25354"
         y="615.15881"
         style="font-size:13.33333302px">■ python スクリプト</tspan><tspan
         sodipodi:role="line"
         x="702.25354"
         y="631.8255"
         id="tspan1108"
         style="font-size:13.33333302px">■ Jupyter notebook</tspan></text>
  </g>
</svg>
